<svg xmlns="http://www.w3.org/2000/svg" viewBox="0 0 195.96 27.34"><defs><style>.cls-1{fill:#fba919;}</style></defs><title>Logo1Asset 3</title><g id="Layer_2" data-name="Layer 2"><g id="Layer_1-2" data-name="Layer 1"><path class="cls-1" d="M39.56.21c1.65-.12,3.31,0,5,0,.08,6,0,11.91,0,17.87A8.73,8.73,0,0,1,42,24.58c-2.42,2.32-6,3-9.26,2.64a9.83,9.83,0,0,1-7.41-4.51,9,9,0,0,1-1.17-4.66v-13H29.3c0,4.31,0,8.63,0,13a4.49,4.49,0,0,0,3.61,4.13,6,6,0,0,0,5.59-1.45,4.06,4.06,0,0,0,.91-3c0-5.38,0-10.76,0-16.15A3.65,3.65,0,0,1,39.56.21"></path><path class="cls-1" d="M47.3.33c.38-.27.89-.13,1.33-.18C53.58.2,58.53.09,63.48.2a24.38,24.38,0,0,1,.06,4.6c-5.43,0-10.86.09-16.28,0,0-1.48-.07-3,0-4.42"></path><path class="cls-1" d="M9,4a20.25,20.25,0,0,1,1.78-4,46.92,46.92,0,0,1,2,4.79c2.89,7.5,5.89,15,8.72,22.47-1.77.1-3.53,0-5.3.06-1.89-5-3.54-10.18-5.49-15.2C8.89,17.17,7.16,22.26,5.35,27.31c-1.78,0-3.57,0-5.35,0C2.91,19.5,6,11.79,9,4"></path><path class="cls-1" d="M81.72,13.76A2.56,2.56,0,0,1,77.84,16a2.61,2.61,0,0,1,.21-4.49A2.56,2.56,0,0,1,81.72,13.76Z"></path><path class="cls-1" d="M91,7.71a12.3,12.3,0,0,0-5.34-6A14.26,14.26,0,0,0,75.92.52a11.9,11.9,0,0,0-6.61,4c-4.89,5.83-4.17,15.78,2,20.42,5.47,4,14.22,3.08,18.21-2.59A15.14,15.14,0,0,0,91,7.71ZM84.75,20.29A8,8,0,0,1,76.11,22a7.75,7.75,0,0,1-4.34-4.87,10.44,10.44,0,0,1,1-8.81A7.34,7.34,0,0,1,78,5,7.69,7.69,0,0,1,84.9,7.41,10,10,0,0,1,84.75,20.29Z"></path><path class="cls-1" d="M81.72,13.76A2.56,2.56,0,0,1,77.84,16a2.61,2.61,0,0,1,.21-4.49A2.56,2.56,0,0,1,81.72,13.76Z"></path><path class="cls-1" d="M52.86,10H58c0,5.76,0,11.51,0,17.26-1.71.09-3.42.07-5.14,0,0-5.76,0-11.52,0-17.28"></path><path class="cls-1" d="M81.72,13.76A2.56,2.56,0,0,1,77.84,16a2.61,2.61,0,0,1,.21-4.49A2.56,2.56,0,0,1,81.72,13.76Z"></path><path class="cls-1" d="M101.92.16c1.72-.11,3.44-.08,5.17,0,0,3.92,0,7.83,0,11.74-1.74,0-3.48,0-5.22,0,0-3.89,0-7.79,0-11.69"></path><path class="cls-1" d="M117.43.14c1.7-.08,3.41,0,5.11,0,.09,9,.07,18.09,0,27.13-1.7,0-3.41,0-5.11,0-.07-1.67,0-3.35,0-5H107.11c0,1.67,0,3.34,0,5-1.71,0-3.42.05-5.13,0-.07-3.35,0-6.71,0-10.06h15.48c0-5.67,0-11.35,0-17"></path><path class="cls-1" d="M140.63.11a40.15,40.15,0,0,1,5,.09c.13,5.78,0,11.56.06,17.34a9.35,9.35,0,0,1-1.76,6.1,10.16,10.16,0,0,1-7.61,3.59,11.11,11.11,0,0,1-8.44-2.8,8.53,8.53,0,0,1-2.57-6.29c0-4.38,0-8.77,0-13.15,1.7.09,3.41,0,5.11,0,0,4.28,0,8.55,0,12.83A4.41,4.41,0,0,0,133.72,22a5.9,5.9,0,0,0,6.13-1.55c.94-1.16.71-2.75.74-4.14,0-5.39-.06-10.79,0-16.19"></path><path class="cls-1" d="M148.44.12c1.68,0,3.36,0,5.05,0,4.23,6,8.41,12,12.62,18,0-6,0-12,0-17.94a48.77,48.77,0,0,1,5.13,0c0,9,0,18,0,27-1.69.12-3.39,0-5.07.07-4.23-6-8.38-12-12.59-18,0,3.82,0,7.64,0,11.46h-5.19c0-6.87,0-13.74,0-20.61"></path><path class="cls-1" d="M174.16.13c1.71-.06,3.43-.07,5.15,0,.06,4.2,0,8.4,0,12.6,3.45-4.21,6.85-8.47,10.34-12.65,2.08.05,4.16-.09,6.23.1-3.51,4.69-7.36,9.12-11,13.72,3,3.51,5.94,7,8.91,10.5a15.27,15.27,0,0,1,2.14,2.8c-2.15.05-4.31.1-6.47,0-2.8-3.16-5.36-6.56-8-9.83-2.47,2.71-4.87,5.48-7.31,8.21,0-8.48,0-17,0-25.45"></path></g></g></svg>