<svg xmlns="http://www.w3.org/2000/svg" viewBox="0 0 73.89 73.89"><defs><style>.cls-1{fill:#fba919;}</style></defs><title>Logo3Asset 5</title><g id="Layer_2" data-name="Layer 2"><g id="Layer_1-2" data-name="Layer 1"><circle cx="36.94" cy="36.94" r="36.94"></circle><path class="cls-1" d="M21.61,17.67a21.45,21.45,0,0,1,1.8-4.07,46.43,46.43,0,0,1,2,4.83C28.35,26,31.37,33.51,34.22,41.1c-1.78.1-3.56,0-5.34,0C27,36.07,25.31,30.89,23.34,25.82c-1.82,5.1-3.57,10.23-5.4,15.32-1.79,0-3.59,0-5.39,0,2.94-7.84,6.05-15.62,9.06-23.44"></path><path class="cls-1" d="M36.48,30c1.73-.11,3.47-.09,5.2,0,0,3.95,0,7.9,0,11.84-1.76,0-3.51,0-5.27,0,.05-3.93,0-7.86,0-11.79"></path><path class="cls-1" d="M52.12,29.93c1.72-.09,3.43,0,5.15-.05.1,9.13.07,18.25,0,27.37-1.71,0-3.44,0-5.16,0-.06-1.69,0-3.37,0-5.06H41.71c0,1.68,0,3.37,0,5-1.73,0-3.45,0-5.18,0-.06-3.38,0-6.77,0-10.15H52.08c0-5.72,0-11.44,0-17.16"></path></g></g></svg>