<svg xmlns="http://www.w3.org/2000/svg" viewBox="0 0 110.6 83.72"><defs><style>.cls-1{fill:#fba919;}</style></defs><title>Logo2Asset 4</title><g id="Layer_2" data-name="Layer 2"><g id="Layer_1-2" data-name="Layer 1"><path class="cls-1" d="M76.5,0h34.1c-.07,11.35,0,22.7,0,34.05H106q0-14.73,0-29.46H76.51c0-1.53,0-3.06,0-4.59M50.09,13.21c1.48-.11,3,0,4.45,0,.07,5.34,0,10.67,0,16a7.8,7.8,0,0,1-2.28,5.85A10.25,10.25,0,0,1,44,37.42a8.79,8.79,0,0,1-6.64-4,8.11,8.11,0,0,1-1.05-4.17V17.58h4.6c0,3.88,0,7.75,0,11.62a4,4,0,0,0,3.23,3.69,5.38,5.38,0,0,0,5-1.29A3.68,3.68,0,0,0,50,28.91c0-4.82,0-9.65,0-14.48a3.35,3.35,0,0,1,.13-1.22m6.94.11c.34-.24.8-.12,1.19-.16,4.44.05,8.88-.06,13.32.05a23.61,23.61,0,0,1,0,4.12c-4.87,0-9.73.08-14.6,0,0-1.32-.06-2.65,0-4M22.69,16.64A18.21,18.21,0,0,1,24.29,13a40.39,40.39,0,0,1,1.79,4.29c2.59,6.72,5.28,13.4,7.82,20.14-1.59.09-3.17,0-4.75,0C27.45,33,26,28.39,24.23,23.89c-1.62,4.53-3.18,9.08-4.8,13.61-1.6,0-3.2,0-4.79,0,2.61-7,5.37-13.88,8.05-20.83m60-3.15a12.72,12.72,0,0,1,8.76,1.09,11,11,0,0,1,4.79,5.35A13.57,13.57,0,0,1,94.91,33c-3.57,5.09-11.42,5.88-16.32,2.32C73,31.19,72.38,22.27,76.76,17a10.67,10.67,0,0,1,5.92-3.55m1.9,4a6.52,6.52,0,0,0-4.69,2.93A9.29,9.29,0,0,0,79,28.36a7,7,0,0,0,3.89,4.37,7.16,7.16,0,0,0,7.74-1.52,9,9,0,0,0,.13-11.54,6.84,6.84,0,0,0-6.15-2.13M62,22h4.63c0,5.16,0,10.31,0,15.47-1.54.08-3.08.06-4.61,0,0-5.16,0-10.33,0-15.49M84.6,23.31a2.29,2.29,0,1,1-.19,4,2.32,2.32,0,0,1,.19-4M14,44.82c1.54-.1,3.08-.08,4.62,0,.05,3.51,0,7,0,10.52-1.56,0-3.11,0-4.67,0,0-3.5,0-7,0-10.48m13.9,0c1.52-.08,3.05,0,4.58,0,.08,8.11.06,16.21,0,24.32q-2.29,0-4.59,0c-.06-1.5,0-3,0-4.5H18.63c0,1.49,0,3,0,4.49-1.53,0-3.07,0-4.6,0-.06-3,0-6,0-9H27.85c0-5.08,0-10.17,0-15.25m20.79,0a35.7,35.7,0,0,1,4.51.09c.12,5.17,0,10.35.05,15.53a8.29,8.29,0,0,1-1.58,5.47,9.08,9.08,0,0,1-6.81,3.22,10,10,0,0,1-7.58-2.51A7.71,7.71,0,0,1,35,60.93c0-3.93,0-7.86,0-11.79,1.52.09,3,0,4.57,0,0,3.83,0,7.66,0,11.49a3.94,3.94,0,0,0,2.91,3.75A5.29,5.29,0,0,0,48,63c.85-1,.63-2.47.66-3.72,0-4.83,0-9.67,0-14.51m7,0c1.51,0,3,0,4.52,0C64,50.11,67.75,55.5,71.52,60.88c0-5.36,0-10.72,0-16.08a41.34,41.34,0,0,1,4.59,0c0,8.08,0,16.15,0,24.23-1.52.1-3,0-4.55,0C67.82,63.75,64.1,58.35,60.32,53c0,3.42,0,6.85,0,10.27H55.66c0-6.16,0-12.32,0-18.48m23.05,0c1.54,0,3.08-.06,4.62,0,.05,3.76,0,7.53,0,11.29,3.1-3.77,6.14-7.59,9.27-11.34,1.86,0,3.73-.07,5.59.09-3.15,4.2-6.6,8.18-9.86,12.3,2.65,3.15,5.32,6.27,8,9.41a13.8,13.8,0,0,1,1.92,2.51c-1.93,0-3.87.09-5.8,0-2.51-2.84-4.81-5.89-7.22-8.82-2.2,2.43-4.36,4.91-6.55,7.36,0-7.6,0-15.21,0-22.81M0,49.65H4.62q0,14.73,0,29.47H34.09V83.7c-11.37,0-22.73,0-34.09,0C.05,72.36,0,61,0,49.65Z"></path></g></g></svg>